HIERARCHY
ROOT RootJoint
{
    OFFSET   0.000000   0.000000   0.000000
    CHANNELS 6 Xposition Yposition Zposition Xrotation Yrotation Zrotation
    JOINT pelvis_lowerback
    {
        OFFSET   0.000000   0.093605   0.000000
        CHANNELS 3 Xrotation Yrotation Zrotation
        JOINT lowerback_torso
        {
            OFFSET   0.000000   0.100000   0.000000
            CHANNELS 3 Xrotation Yrotation Zrotation
            JOINT torso_head
            {
                OFFSET   0.000000   0.282350   0.000000
                CHANNELS 3 Xrotation Yrotation Zrotation
                End Site
                {
                    OFFSET   0.000000   0.192650   0.000000
                }
            }
            JOINT rTorso_Clavicle
            {
                OFFSET  -0.001000   0.157500   0.000000
                CHANNELS 3 Xrotation Yrotation Zrotation
                JOINT rShoulder
                {
                    OFFSET  -0.117647   0.000000   0.000000
                    CHANNELS 3 Xrotation Yrotation Zrotation
                    JOINT rElbow
                    {
                        OFFSET  -0.245000   0.000000   0.000000
                        CHANNELS 3 Xrotation Yrotation Zrotation
                        JOINT rWrist
                        {
                            OFFSET  -0.240000   0.000000   0.000000
                            CHANNELS 3 Xrotation Yrotation Zrotation
                            End Site
                            {
                                OFFSET  -0.116353  -0.002500   0.000000
                            }
                        }
                    }
                }
            }
            JOINT lTorso_Clavicle
            {
                OFFSET   0.001000   0.157500   0.000000
                CHANNELS 3 Xrotation Yrotation Zrotation
                JOINT lShoulder
                {
                    OFFSET   0.117647   0.000000   0.000000
                    CHANNELS 3 Xrotation Yrotation Zrotation
                    JOINT lElbow
                    {
                        OFFSET   0.245000   0.000000   0.000000
                        CHANNELS 3 Xrotation Yrotation Zrotation
                        JOINT lWrist
                        {
                            OFFSET   0.240000   0.000000   0.000000
                            CHANNELS 3 Xrotation Yrotation Zrotation
                            End Site
                            {
                                OFFSET   0.116353  -0.002500   0.000000
                            }
                        }
                    }
                }
            }
        }
    }
    JOINT rHip
    {
        OFFSET  -0.100000  -0.051395   0.000000
        CHANNELS 3 Xrotation Yrotation Zrotation
        JOINT rKnee
        {
            OFFSET   0.000000  -0.410000   0.000000
            CHANNELS 3 Xrotation Yrotation Zrotation
            JOINT rAnkle
            {
                OFFSET   0.000000  -0.390000   0.000000
                CHANNELS 3 Xrotation Yrotation Zrotation
                JOINT rToeJoint
                {
                    OFFSET   0.000000  -0.050000   0.130000
                    CHANNELS 3 Xrotation Yrotation Zrotation
                    End Site
                    {
                        OFFSET  -0.010000   0.002000   0.060000
                    }
                }
            }
        }
    }
    JOINT lHip
    {
        OFFSET   0.100000  -0.051395   0.000000
        CHANNELS 3 Xrotation Yrotation Zrotation
        JOINT lKnee
        {
            OFFSET   0.000000  -0.410000   0.000000
            CHANNELS 3 Xrotation Yrotation Zrotation
            JOINT lAnkle
            {
                OFFSET   0.000000  -0.390000   0.000000
                CHANNELS 3 Xrotation Yrotation Zrotation
                JOINT lToeJoint
                {
                    OFFSET   0.000000  -0.050000   0.130000
                    CHANNELS 3 Xrotation Yrotation Zrotation
                    End Site
                    {
                        OFFSET   0.010000   0.002000   0.060000
                    }
                }
            }
        }
    }
}
MOTION
Frames: 12
Frame Time:   0.008333
 -2.200151   0.572259   4.087109 -46.546928  10.822083  -2.852935  47.064613   3.367911  11.955670   3.654450  -8.469928   9.685507   2.958328  -0.347945 -10.827096  -4.836074  22.892486 -28.171042  -7.026766  22.446583  -7.863416   0.006235  22.586583  -0.015259   6.315450   5.157583  -4.916711 -11.038346 -34.013794  17.590547 -14.950501 -27.322009  -2.921220   0.005787 -30.137405  -0.014537   0.649243 -10.284033  17.654284 -45.408789  -0.380230  -0.580945 108.672396  -0.213727   0.013644 -23.900603  -7.871522   9.785144   6.502063  -0.019677  -0.029923 -26.960860   8.808544  -2.662186 122.695446  -0.024346   0.010976 -20.155033  -6.731932  -5.881305 -10.920826  -0.026293  -0.065425
 -2.195572   0.577242   4.084643 -46.780211   8.896133  -2.369130  47.228812   3.445658  10.942387   3.983884  -7.948833   9.314049   2.636694  -0.062654 -10.756259  -5.273007  22.691664 -27.394550  -7.652482  22.189713  -7.723006   0.006196  22.983125  -0.009035   6.262038   5.001206  -5.412749 -11.207109 -33.164880  16.803234 -15.688787 -26.067237  -2.530151   0.007095 -29.714256  -0.008690   0.696373 -10.064412  17.420059 -44.251672  -0.886137  -0.055375 110.841065  -0.212693   0.022253 -24.777590  -7.781347   9.376295   6.303864  -0.012935  -0.022573 -28.527855   8.733848  -2.092094 122.464530  -0.015782   0.006850 -19.507765  -6.779451  -6.164873  -9.603640  -0.044063  -0.054060
 -2.191521   0.581526   4.081737 -46.943716   6.912177  -1.879099  47.472680   3.479272   9.782645   4.321939  -7.480484   8.831372   2.357401   0.198128 -10.700063  -5.672421  22.456522 -26.608807  -8.232221  21.920339  -7.541440   0.006582  23.358661  -0.005409   6.209248   4.965489  -5.854130 -11.435029 -32.325086  16.080479 -16.407163 -24.872957  -2.086823   0.008018 -29.317640  -0.003654   0.729102  -9.875508  17.419693 -43.058463  -1.364881   0.412604 112.848600  -0.209647   0.029148 -25.602939  -7.686654   8.996342   6.080086  -0.007054  -0.016500 -30.343166   8.513178  -1.213531 121.850292  -0.002616  -0.001131 -18.939468  -6.802537  -6.424406  -8.534704  -0.056199  -0.042249
 -2.187631   0.585055   4.078601 -47.065990   4.909564  -1.366421  47.746256   3.497358   8.568936   4.662596  -7.062852   8.273131   2.108213   0.435315 -10.672130  -6.039449  22.208940 -25.858194  -8.767595  21.648647  -7.355666   0.006918  23.703251  -0.003278   6.161482   4.929667  -6.201597 -11.663432 -31.518891  15.419352 -17.089077 -23.748417  -1.638265   0.008331 -28.942522   0.000162   0.749484  -9.677530  17.531394 -41.838316  -1.792348   0.776506 114.740944  -0.205196   0.034300 -26.371318  -7.593078   8.642972   5.879434  -0.002628  -0.011767 -32.236217   8.202709  -0.203126 121.091284   0.010542  -0.009572 -18.417276  -6.819527  -6.664135  -7.564877  -0.064744  -0.031894
 -2.183728   0.587815   4.075329 -47.152851   2.912375  -0.841146  48.027370   3.511755   7.352471   4.998316  -6.683448   7.676943   1.881374   0.653620 -10.661574  -6.381104  21.962305 -25.157814  -9.264408  21.383915  -7.182282   0.007097  24.021156  -0.001976   6.116106   4.880211  -6.496176 -11.870415 -30.753757  14.806418 -17.730135 -22.695221  -1.206596   0.008079 -28.589852   0.002770   0.762030  -9.474470  17.679218 -40.618896  -2.167691   1.049094 116.524606  -0.199219   0.038103 -27.086438  -7.501922   8.313995   5.700121   0.000606  -0.008137 -34.125326   7.830221   0.854233 120.297571   0.021860  -0.016558 -17.934222  -6.833435  -6.886619  -6.683244  -0.069910  -0.023444
 -2.179722   0.589809   4.071962 -47.208125   0.939250  -0.311218  48.308326   3.526079   6.162833   5.326708  -6.335459   7.069067   1.672456   0.855929 -10.660030  -6.701218  21.723725 -24.511982  -9.726903  21.131397  -7.027750   0.007133  24.316141  -0.001157   6.072381   4.822505  -6.769394 -12.048802 -30.032581  14.232651 -18.329815 -21.711331  -0.801391   0.007408 -28.259490   0.004350   0.770384  -9.273093  17.825867 -39.424564  -2.497381   1.252024 118.200264  -0.191699   0.040930 -27.752335  -7.413682   8.007558   5.538539   0.002916  -0.005403 -35.965930   7.414320   1.907670 119.518533   0.030769  -0.021461 -17.485987  -6.845581  -7.093634  -5.882572  -0.072196  -0.016891
 -2.175570   0.591050   4.068519 -47.235917  -0.994859   0.219290  48.587988   3.540200   5.017069   5.648449  -6.015962   6.466708   1.478964   1.044037 -10.662648  -7.001791  21.496473 -23.919520 -10.158175  20.893454  -6.893140   0.007069  24.590892  -0.000638   6.030200   4.762013  -7.037039 -12.197785 -29.356794  13.692662 -18.889406 -20.793991  -0.425879   0.006471 -27.950840   0.005125   0.776918  -9.078118  17.954803 -38.273373  -2.789853   1.406301 119.769327  -0.182779   0.043058 -28.372767  -7.328555   7.722051   5.391652   0.004522  -0.003390 -37.733546   6.970247   2.925128 118.775755   0.037259  -0.024321 -17.069348  -6.856649  -7.286563  -5.155611  -0.072190  -0.012020
 -2.171676   0.591842   4.063859 -47.049383  -2.579746   0.558061  49.286141   3.373203   4.244945   5.476912  -5.729012   5.855827   1.206899   1.269467 -10.607699  -7.272206  21.305212 -23.293786 -10.989753  20.532261  -6.775728   0.007344  25.012490   0.000674   5.970209   5.078262  -7.319632 -12.576155 -28.611464  13.200214 -20.041270 -19.763746  -0.191407   0.005307 -27.929329   0.004339   0.787069  -8.910178  17.714730 -37.296730  -3.298084   1.768691 120.927175  -0.164944   0.044061 -29.552584  -7.270903   6.842314   5.127285   0.005983  -0.001869 -39.641026   6.331027   4.106266 116.392285   0.064681  -0.041908 -16.686774  -6.457844  -7.226609  -4.827529  -0.064826  -0.007692
 -2.167856   0.591942   4.058853 -46.736353  -3.935440   0.838761  49.951724   3.140079   3.612395   5.269833  -5.503153   5.347214   0.968289   1.472841 -10.549289  -7.567315  21.080801 -22.712590 -11.777859  20.147084  -6.692436   0.007458  25.391018   0.001198   5.905398   5.383775  -7.670188 -13.000898 -27.888735  12.812592 -21.143648 -18.794330   0.134374   0.004396 -27.906351   0.003706   0.778021  -8.751134  17.680822 -36.446214  -3.811176   2.233611 121.954621  -0.146007   0.044386 -30.663137  -7.200129   6.019807   4.825642   0.007066  -0.001091 -41.516190   5.680549   5.274351 113.485396   0.089669  -0.056546 -16.353059  -6.071399  -7.170380  -4.517429  -0.057893  -0.004578
 -2.164007   0.591300   4.053785 -46.360689  -5.116108   1.096733  50.560962   2.872431   3.081062   5.058640  -5.328328   4.923437   0.760904   1.658165 -10.494235  -7.864589  20.834733 -22.169790 -12.516077  19.755033  -6.628550   0.007415  25.731564   0.001341   5.838132   5.619276  -8.018559 -13.421436 -27.212171  12.504902 -22.182893 -17.902215   0.500442   0.003653 -27.885557   0.003155   0.767903  -8.598007  17.757267 -35.662521  -4.296246   2.747696 122.913071  -0.128013   0.044165 -31.699014  -7.119822   5.252519   4.543111   0.007471  -0.000827 -43.286929   5.049678   6.365381 110.502052   0.107454  -0.063909 -16.052158  -5.707310  -7.121823  -4.229637  -0.051308  -0.002473
 -2.160071   0.589909   4.048760 -45.951608  -6.170206   1.349545  51.117068   2.587502   2.625893   4.849403  -5.192334   4.564318   0.574893   1.829073 -10.443239  -8.154204  20.579842 -21.660833 -13.205838  19.367802  -6.578074   0.007255  26.040984   0.001306   5.768894   5.797675  -8.353055 -13.821394 -26.586144  12.252360 -23.158522 -17.086066   0.879355   0.003023 -27.869442   0.002654   0.761950  -8.463931  17.886172 -34.927165  -4.743181   3.281715 123.815328  -0.111619   0.043415 -32.664443  -7.032774   4.537059   4.281969   0.007456  -0.000829 -44.939080   4.445063   7.362873 107.617092   0.118350  -0.064912 -15.776613  -5.366277  -7.080808  -3.969314  -0.045108  -0.001140
 -2.156014   0.587780   4.043813 -45.525204  -7.135114   1.607443  51.627503   2.296269   2.228480   4.646446  -5.085558   4.253909   0.404543   1.987630 -10.395937  -8.431318  20.324927 -21.184250 -13.849579  18.992720  -6.538315   0.007023  26.324460   0.001188   5.699043   5.936797  -8.674261 -14.194944 -26.009168  12.038819 -24.072491 -16.339914   1.256375   0.002484 -27.858041   0.002204   0.761435  -8.352522  18.037887 -34.234680  -5.150712   3.817351 124.663283  -0.097031   0.042188 -33.564165  -6.940948   3.870240   4.041249   0.007219  -0.000952 -46.475001   3.867248   8.268297 104.893362   0.123776  -0.061533 -15.522377  -5.047507  -7.046472  -3.736630  -0.039393  -0.000362
